<mxfile host="app.diagrams.net" modified="2024-04-08T21:07:11.845Z" agent="Mozilla/5.0 (X11; Ubuntu; Linux x86_64; rv:124.0) Gecko/20100101 Firefox/124.0" version="24.2.3" etag="seCRd0NVw3suXS4y4hqt" type="github">
  <diagram name="PÃ¡gina-1" id="FFK3mXbSorPtZpXeYgEh">
    <mxGraphModel>
      <root>
        <mxCell id="0" />
        <mxCell id="1" parent="0" />
      </root>
    </mxGraphModel>
  </diagram>
</mxfile>
